<?xml version="1.0"?>
<svg xmlns="http://www.w3.org/2000/svg" height="512px" viewBox="0 0 512 512" width="512px" class=""><g><path d="m512 256c0-68.378906-26.628906-132.667969-74.980469-181.019531-48.351562-48.351563-112.640625-74.980469-181.019531-74.980469s-132.667969 26.628906-181.019531 74.980469c-48.351563 48.351562-74.980469 112.640625-74.980469 181.019531s26.628906 132.667969 74.980469 181.019531c48.351562 48.351563 112.640625 74.980469 181.019531 74.980469s132.667969-26.628906 181.019531-74.980469c48.351563-48.351562 74.980469-112.640625 74.980469-181.019531zm-275.246094 19.242188c-10.628906-10.628907-10.628906-27.859376 0-38.488282s27.859375-10.628906 38.488282 0c10.628906 10.628906 10.628906 27.859375 0 38.488282-10.628907 10.628906-27.859376 10.628906-38.488282 0zm0 0" fill="#27488f" data-original="#27488F" class="" style="fill:#1B3B6B" data-old_color="#27488f"/><g fill="#1b3b6b"><path d="m512 256c0-68.378906-26.628906-132.667969-74.980469-181.019531l-161.773437 161.773437c10.625 10.628906 10.625 27.859375-.003906 38.488282-10.628907 10.628906-27.855469 10.628906-38.484376 0l-161.777343 161.777343c48.351562 48.351563 112.640625 74.980469 181.019531 74.980469s132.667969-26.628906 181.019531-74.980469c48.351563-48.351562 74.980469-112.640625 74.980469-181.019531zm0 0" data-original="#1B3B6B" class="active-path" style="fill:#C12020" data-old_color="#1B3B6B"/><path d="m427.335938 271.117188c-8.347657 0-15.117188-6.769532-15.117188-15.117188 0-86.140625-70.078125-156.21875-156.21875-156.21875-8.347656 0-15.117188-6.769531-15.117188-15.117188 0-8.351562 6.769532-15.117187 15.117188-15.117187 102.8125 0 186.453125 83.640625 186.453125 186.453125 0 8.351562-6.765625 15.117188-15.117187 15.117188zm0 0" data-original="#1B3B6B" class="active-path" style="fill:#C12020" data-old_color="#1B3B6B"/><path d="m256 442.453125c-102.808594 0-186.453125-83.644531-186.453125-186.453125 0-8.351562 6.769531-15.117188 15.117187-15.117188 8.347657 0 15.117188 6.765626 15.117188 15.117188 0 86.136719 70.082031 156.21875 156.21875 156.21875 8.351562 0 15.117188 6.769531 15.117188 15.117188 0 8.347656-6.765626 15.117187-15.117188 15.117187zm0 0" data-original="#1B3B6B" class="active-path" style="fill:#C12020" data-old_color="#1B3B6B"/></g><path d="m256 412.21875c-43.070312 0-82.125-17.519531-110.410156-45.808594l-21.371094 21.371094c33.761719 33.761719 80.375 54.671875 131.78125 54.671875 8.351562 0 15.117188-6.769531 15.117188-15.117187 0-8.347657-6.765626-15.117188-15.117188-15.117188zm0 0" fill="#12254c" data-original="#12254C" class="" style="fill:#E3E9ED" data-old_color="#12254c"/><path d="m387.78125 124.21875-21.371094 21.371094c28.289063 28.285156 45.808594 67.339844 45.808594 110.410156 0 8.347656 6.769531 15.117188 15.117188 15.117188 8.351562 0 15.117187-6.769532 15.117187-15.117188 0-51.40625-20.910156-98.019531-54.671875-131.78125zm0 0" fill="#12254c" data-original="#12254C" class="" style="fill:#E3E9ED" data-old_color="#12254c"/><path d="m372.914062 256c0-64.464844-52.449218-116.914062-116.914062-116.914062s-116.910156 52.449218-116.910156 116.914062 52.445312 116.910156 116.910156 116.910156 116.914062-52.445312 116.914062-116.910156zm-136.160156 19.242188c-10.628906-10.628907-10.628906-27.859376 0-38.488282s27.859375-10.628906 38.488282 0c10.628906 10.628906 10.628906 27.859375 0 38.488282-10.628907 10.628906-27.859376 10.628906-38.488282 0zm0 0" fill="#f2f6fc" data-original="#F2F6FC" class=""/><path d="m372.914062 256c0-32.234375-13.113281-61.460938-34.28125-82.632812l-63.386718 63.386718c10.625 10.628906 10.625 27.859375-.003906 38.488282-10.628907 10.628906-27.855469 10.628906-38.484376 0l-63.386718 63.386718c21.167968 21.171875 50.398437 34.28125 82.628906 34.28125 64.464844 0 116.914062-52.445312 116.914062-116.910156zm0 0" fill="#dce1eb" data-original="#DCE1EB" class="" style="fill:#DCE1EB"/></g> </svg>
