<?xml version="1.0"?>
<svg xmlns="http://www.w3.org/2000/svg" id="Capa_1" enable-background="new 0 0 512 512" height="512px" viewBox="0 0 512 512" width="512px" class=""><g><g><g><path d="m256 512c-140.61 0-256-115.39-256-256s115.39-256 256-256 256 115.39 256 256-115.39 256-256 256z" fill="#613d5c" data-original="#613D5C" class="" style="fill:#613D5C" data-old_color="#613d5c"/></g><path d="m512 256c0-140.61-115.39-256-256-256v512c140.61 0 256-115.39 256-256z" fill="#4b2746" data-original="#4B2746" class="" style="fill:#4B2746" data-old_color="#4b2746"/><g id="Dvd_1_"><g><path d="m136 271c-8.291 0-15-6.709-15-15 0-74.443 60.557-135 135-135 8.291 0 15 6.709 15 15s-6.709 15-15 15c-57.891 0-105 47.109-105 105 0 8.291-6.709 15-15 15z" fill="#4b2746" data-original="#4B2746" class="" style="fill:#4B2746" data-old_color="#4b2746"/></g><g><path d="m256 391c-8.291 0-15-6.709-15-15s6.709-15 15-15c57.891 0 105-47.109 105-105 0-8.291 6.709-15 15-15s15 6.709 15 15c0 74.443-60.557 135-135 135z" fill="#4b2746" data-original="#4B2746" class="" style="fill:#4B2746" data-old_color="#4b2746"/></g><g><path d="m256 331c-41.353 0-75-33.647-75-75s33.647-75 75-75 75 33.647 75 75-33.647 75-75 75z" fill="#ff6c6c" data-original="#FF6C6C" class="" style="fill:#FF6C6C"/></g></g><path d="m391 256c0-8.291-6.709-15-15-15s-15 6.709-15 15c0 57.891-47.109 105-105 105v30c74.443 0 135-60.557 135-135z" fill="#351b33" data-original="#351B33" class="" style="fill:#351B33"/><path d="m271 136c0-8.291-6.709-15-15-15v30c8.291 0 15-6.709 15-15z" fill="#351b33" data-original="#351B33" class="" style="fill:#351B33"/><path d="m331 256c0-41.353-33.647-75-75-75v150c41.353 0 75-33.647 75-75z" fill="#e63950" data-original="#E63950" class="active-path" style="fill:#E63950" data-old_color="#e63950"/></g></g> </svg>
