<?xml version="1.0"?>
<svg xmlns="http://www.w3.org/2000/svg" xmlns:xlink="http://www.w3.org/1999/xlink" version="1.1" id="Layer_1" x="0px" y="0px" viewBox="0 0 512 512" style="enable-background:new 0 0 512 512;" xml:space="preserve" width="512px" height="512px" class=""><g><g>
	<path style="fill:#FFFFFF" d="M512,256c0,141.383-114.617,256-256,256S0,397.383,0,256S114.617,0,256,0S512,114.617,512,256" data-original="#41965B" class="" data-old_color="#41965B"/>
	<g>
		<path style="fill:#5F7D95" d="M335.448,326.621c-4.882,0-8.828-3.946-8.828-8.828V194.207c0-4.882,3.946-8.828,8.828-8.828    c4.882,0,8.828,3.946,8.828,8.828v123.586C344.276,322.675,340.33,326.621,335.448,326.621" data-original="#FFFFFF" class="active-path" data-old_color="#FFFFFF"/>
		<path style="fill:#5F7D95" d="M388.414,326.621c-4.882,0-8.828-3.946-8.828-8.828V194.207c0-4.882,3.946-8.828,8.828-8.828    c4.882,0,8.828,3.946,8.828,8.828v123.586C397.241,322.675,393.295,326.621,388.414,326.621" data-original="#FFFFFF" class="active-path" data-old_color="#FFFFFF"/>
		<path style="fill:#5F7D95" d="M220.681,326.621c-1.483,0-2.993-0.371-4.37-1.165c-4.237-2.419-5.711-7.812-3.284-12.041    l70.621-123.586c2.41-4.237,7.804-5.738,12.041-3.284c4.237,2.419,5.711,7.812,3.284,12.041l-70.621,123.586    C226.728,325.023,223.753,326.621,220.681,326.621" data-original="#FFFFFF" class="active-path" data-old_color="#FFFFFF"/>
		<polygon style="fill:#5F7D95" points="203.034,256 97.103,317.793 97.103,194.207   " data-original="#FFFFFF" class="active-path" data-old_color="#FFFFFF"/>
	</g>
</g></g> </svg>
